<svg width="170" height="45" viewBox="0 0 170 45" fill="none" xmlns="http://www.w3.org/2000/svg">
<rect x="1.5" y="1.5" width="166.2" height="42" rx="7.5" fill="#FBF3FF"/>
<rect x="1.5" y="1.5" width="166.2" height="42" rx="7.5" stroke="#283F74" stroke-width="3"/>
<path fill-rule="evenodd" clip-rule="evenodd" d="M18 14.1H19.2V12.9H36V14.1H37.2V30.9H36V32.1H19.2V30.9H18V14.1ZM27.6 26.1V27.3H25.2V24.9H26.4V23.7H27.6V21.3H26.4V20.1H25.2V17.7H27.6V18.9H28.8V20.1H30V21.3H31.2V23.7H30V24.9H28.8V26.1H27.6Z" fill="#283F74"/>
<path d="M42.2 29.5V17.5H44.2V19.5H50.2V17.5H52.2V29.5H50.2V21.5H44.2V29.5H42.2ZM44.2 17.5V15.5H50.2V17.5H44.2Z" fill="#283F74"/>
<path d="M56.2 29.5V27.5H62.2V29.5H56.2ZM62.2 27.5V25.5H64.2V27.5H62.2ZM54.2 27.5V21.5H56.2V27.5H54.2ZM62.2 23.5V21.5H64.2V23.5H62.2ZM56.2 21.5V19.5H62.2V21.5H56.2Z" fill="#283F74"/>
<path d="M70.2 29.5V27.5H72.2V29.5H70.2ZM68.2 27.5V21.5H66.2V19.5H68.2V15.5H70.2V19.5H72.2V21.5H70.2V27.5H68.2Z" fill="#283F74"/>
<path d="M74.2 29.5V19.5H76.2V29.5H74.2ZM74.2 17.5V15.5H76.2V17.5H74.2Z" fill="#283F74"/>
<path d="M80.2 29.5V27.5H86.2V29.5H80.2ZM78.2 27.5V21.5H80.2V27.5H78.2ZM86.2 27.5V21.5H88.2V27.5H86.2ZM80.2 21.5V19.5H86.2V21.5H80.2Z" fill="#283F74"/>
<path d="M98.2 29.5V21.5H100.2V29.5H98.2ZM90.2 29.5V19.5H98.2V21.5H92.2V29.5H90.2Z" fill="#283F74"/>
<path d="M102.2 29.5V27.5H110.2V29.5H102.2ZM110.2 27.5V25.5H112.2V27.5H110.2ZM104.2 25.5V23.5H110.2V25.5H104.2ZM102.2 23.5V21.5H104.2V23.5H102.2ZM104.2 21.5V19.5H112.2V21.5H104.2Z" fill="#283F74"/>
<path d="M129.766 29.68V27.496H131.413V18.4576H126.978C126.793 19.0288 126.574 19.6 126.306 20.1376H123.87C124.81 18.2728 125.348 16.3744 125.499 14.392H127.734C127.683 15.0304 127.616 15.652 127.515 16.2736H133.58V29.68H129.766ZM117.687 28.8064C118.225 25.7824 118.393 22.54 118.393 19.0624H120.106C120.106 22.1032 120.056 25.5136 119.502 28.8064H117.687ZM118.057 18.3736V16.2904H120.812V14.476H122.912V16.2904H124.441V18.3736H122.912V20.4232L124.659 21.5824V24.1192L122.912 22.96V29.68H120.812V18.3736H118.057ZM123.903 26.572L126.423 20.4064H128.574L126.91 24.472H128.842L128.54 22.5232H130.489L131.127 26.572H123.903ZM139.678 21.4312V19.7848H143.29V19.096H138.939V17.5168H143.29V16.828H139.678V15.1816H143.29V14.392H145.441V15.1816H149.389V17.2816H150.128V19.3312H149.389V21.4312H145.441V22.1872H149.641V23.9344H145.441V24.6568H149.96V26.4376H145.441V27.328H143.29V26.4376H139.292V24.6568H143.29V23.9344H139.611V22.1872H143.29V21.4312H139.678ZM134.672 29.68C135.915 27.2272 136.419 25.312 136.57 23.0104H134.823V20.86H135.394L136.335 16.996H134.823V14.8456H139.006L137.545 20.86H138.822C138.822 23.2456 138.654 25.06 138.116 27.0424C139.023 27.4456 140.082 27.5968 141.56 27.5968H150.128V29.512H141.56C139.762 29.512 138.553 29.344 137.545 28.924C137.444 29.176 137.36 29.428 137.259 29.68H134.672ZM145.441 19.7848H147.339V19.096H145.441V19.7848ZM145.441 17.5168H147.339V16.828H145.441V17.5168Z" fill="#283F74"/>
</svg>
