<svg width="146" height="45" viewBox="0 0 146 45" fill="none" xmlns="http://www.w3.org/2000/svg">
<rect x="1.5" y="1.5" width="142.2" height="42" rx="12.5" fill="#FBF3FF"/>
<rect x="1.5" y="1.5" width="142.2" height="42" rx="12.5" stroke="#7935FF" stroke-width="3"/>
<g clip-path="url(#clip0_44_43)">
<path d="M25.2021 24.285C24.9508 24.285 24.7482 24.4876 24.7482 24.7389C24.7482 24.9902 24.9508 25.1928 25.2021 25.1928C25.4534 25.1928 25.656 24.9902 25.656 24.7389C25.656 24.4876 25.4534 24.285 25.2021 24.285ZM29.4859 25.6467C29.2346 25.6467 29.032 25.8492 29.032 26.1006C29.032 26.3519 29.2346 26.5545 29.4859 26.5545C29.7372 26.5545 29.9398 26.3519 29.9398 26.1006C29.9398 25.853 29.7372 25.6504 29.4859 25.6467Z" fill="#8F66DF"/>
<path d="M36.343 25.5154C36.1479 25.3954 35.9229 25.3203 35.694 25.2978C36.2004 24.0637 36.523 22.447 35.424 20.8415C33.751 18.392 31.3465 17.1129 28.2818 17.0529C27.4078 17.0341 26.38 17.0754 25.2922 17.1204C24.028 17.1691 22.3438 17.2367 21.2034 17.1429C21.4323 17.0191 21.6761 16.8991 21.8861 16.7978C22.6926 16.4039 23.3228 16.1001 23.1128 15.5599C23.0002 15.2448 22.6739 15.0798 22.1337 15.0648C21.0009 15.0385 18.5514 15.6949 18.1125 16.8015C17.8649 17.4242 17.8237 18.6246 20.3332 19.6899C21.3647 20.1288 24.2831 20.6614 25.4084 20.774C25.6635 20.7965 25.9149 20.849 26.1549 20.939C25.8961 21.1078 25.6335 21.2879 25.3672 21.4679C24.9058 21.2054 24.1481 20.894 23.5854 21.2766C23.3753 21.4117 23.244 21.6405 23.2365 21.8918C23.229 22.1994 23.4166 22.5032 23.6267 22.7433C22.7977 23.4073 22.1262 24.0487 21.8861 24.5439C21.6198 25.1515 21.511 26.1493 22.0099 27.1209C22.6401 28.355 24.028 29.214 26.1437 29.6791C28.9083 30.2831 31.294 29.7392 32.8732 28.9064C33.751 28.4413 34.3774 27.8899 34.6775 27.3985C34.7713 27.4285 34.865 27.4585 34.9626 27.4885C35.0976 27.5298 35.2327 27.571 35.3602 27.616C35.7766 27.7623 36.2417 27.7398 36.5981 27.5635L36.6168 27.5523C36.8756 27.421 37.0745 27.1884 37.1645 26.9108C37.3858 26.1681 36.7369 25.763 36.343 25.5154ZM24.5532 22.0343L24.3019 22.2182C24.2268 22.1431 24.1593 22.0569 24.1068 21.9631C24.2043 21.9331 24.3731 21.9668 24.5532 22.0343ZM36.343 26.6557C36.3242 26.712 36.283 26.757 36.2079 26.7983C36.0579 26.8733 35.8366 26.8771 35.6378 26.8095C35.5027 26.7608 35.3564 26.7158 35.2101 26.6707C34.9401 26.5882 34.4862 26.4494 34.3999 26.3444C34.2574 26.1568 33.991 26.1156 33.7997 26.2581C33.6084 26.4007 33.5709 26.667 33.7134 26.8583C33.766 26.9221 33.8222 26.9783 33.8897 27.0271C33.2371 27.9311 30.3712 29.7317 26.3162 28.8426C24.4894 28.4413 23.2591 27.7136 22.7602 26.7308C22.4 26.0218 22.4826 25.2941 22.6551 24.8965C23.1503 23.8649 26.7326 21.4904 29.0208 20.1438C29.2233 20.0237 29.2909 19.7612 29.1708 19.5586C29.0508 19.356 28.777 19.2735 28.5857 19.4086C28.4018 19.5173 27.7754 19.8887 26.9727 20.3989C26.7026 20.2151 26.2337 19.9937 25.4835 19.9187C24.2944 19.7987 21.5485 19.2735 20.6595 18.8984C20.0256 18.6283 18.5814 17.9156 18.9002 17.1129C18.9753 16.9253 19.3241 16.6252 20.0781 16.3364C20.592 16.1413 21.1284 16.01 21.6723 15.9425L21.5035 16.025C20.9896 16.2764 20.4307 16.554 20.0518 16.8841C20.0256 16.869 19.9993 16.8503 19.9768 16.8278C19.8193 16.659 19.5529 16.6477 19.3804 16.809L19.3729 16.8165C19.2003 16.9778 19.1966 17.2479 19.3579 17.4205C19.5117 17.5818 19.7367 17.7018 20.0218 17.7918C20.0331 17.7956 20.0406 17.7993 20.0518 17.8031C21.0496 18.1107 22.8202 18.0732 25.3147 17.9719C26.3912 17.9306 27.4078 17.8894 28.2556 17.9044C31.0689 17.9606 33.1808 19.0785 34.715 21.3254C35.6565 22.7058 35.3189 24.0637 34.7788 25.2453C34.7112 25.1928 34.6475 25.1328 34.595 25.069C34.4449 24.889 34.1786 24.8589 33.9948 25.0015C33.811 25.1478 33.781 25.4179 33.9273 25.6017C34.0135 25.7105 34.4599 26.2244 35.0113 26.1793H35.0413C35.0601 26.1756 35.0751 26.1793 35.0939 26.1756C35.469 26.1081 35.709 26.1231 35.9304 26.2656C36.2267 26.4532 36.3692 26.562 36.343 26.6557Z" fill="#8F66DF"/>
</g>
<path d="M58.16 29.764C55.7408 29.4952 53.8088 29.0584 52.2464 28.42C50.684 29.0584 48.752 29.4952 46.3328 29.764V27.8656C47.7608 27.6976 48.9704 27.496 49.9784 27.2104C49.004 26.5216 48.248 25.7152 47.66 24.7912C47.0216 26.4376 46.2656 28.0672 45.4088 29.68H42.8552C44.1488 27.4624 45.2072 25.2952 46.064 23.044H44.5184V22.372H43.04V18.5248H45.0392L44.5856 17.0128H46.9208L47.3744 18.5248H49.7096L49.256 17.0128H51.5744L52.028 18.5248H53.9264L54.3968 16.8448H56.6816L56.2112 18.5248H58.16V22.372H56.6816V23.044H48.3152L48.0632 23.7496L48.4328 23.7328H55.64L57.404 23.7496C56.7488 25.1104 55.8416 26.2696 54.5144 27.2104C55.5224 27.496 56.732 27.6976 58.16 27.8656V29.764ZM43.8296 16.7608V14.8792C49.4744 14.8792 52.9856 14.7784 57.3872 14.3584V16.24C53.1368 16.66 49.592 16.7608 43.8296 16.7608ZM45.2072 21.196H46.7192L46.9712 20.4232H45.2072V21.196ZM48.9368 21.196H55.9928V20.4232H49.172C49.088 20.6752 49.004 20.944 48.9368 21.196ZM50.7008 25.4296C51.1544 25.8496 51.6584 26.2192 52.2464 26.5384C52.8344 26.2192 53.3384 25.8496 53.792 25.4296H50.7008ZM59.504 29.68C61.2848 26.1184 62.6792 22.6744 63.8216 19.2808H60.1592L61.5368 14.6776H63.7544L62.9984 17.1808H64.5104C64.8296 16.1896 65.1152 15.2152 65.4008 14.224H67.7696C67.484 15.2152 67.1648 16.1896 66.8624 17.1808H74.96V19.2808H66.1736C66.0056 19.8016 65.8208 20.3056 65.636 20.8264H74.0192C73.616 23.128 72.5576 24.9592 71.0288 26.3872C72.1208 26.9584 73.3976 27.4288 74.8592 27.7648V29.8816C72.7592 29.428 70.844 28.7392 69.248 27.748C67.652 28.7392 65.7368 29.428 63.6368 29.8816V27.7648C65.0984 27.4288 66.3752 26.9584 67.4672 26.3872C66.3752 25.3624 65.5184 24.136 64.9808 22.6744C64.1072 25.0264 63.1496 27.3616 62.0744 29.68H59.504ZM67.3328 22.8424C67.8032 23.7328 68.4416 24.5224 69.248 25.1944C70.0544 24.5224 70.6928 23.7328 71.1632 22.8424H67.3328ZM70.0376 14.476H72.2216L72.8768 16.8448H70.6928L70.0376 14.476ZM91.0544 15.4504V26.236H85.1912V27.5632H92.096V29.68H83.0408V26.236H77.1776V15.4504H83.0408V14.224H85.1912V15.4504H91.0544ZM79.3448 24.0856H83.0408V21.9016H79.3448V24.0856ZM79.3448 19.7848H83.0408V17.6008H79.3448V19.7848ZM85.1912 24.0856H88.8872V21.9016H85.1912V24.0856ZM85.1912 19.7848H88.8872V17.6008H85.1912V19.7848ZM106.393 22.3216H101.739V23.4472H106.393V22.3216ZM93.3728 24.7912V22.456L95.288 22.0024V18.928H93.5408V16.8112H95.288V14.476H97.472V16.8112H98.816V18.928H97.472V21.4816L98.984 21.112V23.4472L97.472 23.8168V29.68H93.8264V27.6472H95.288V24.3376L93.3728 24.7912ZM99.572 29.68V20.4568H108.56V29.68H106.393V27.9664H101.739V29.68H99.572ZM99.9248 19.6336V14.6944H108.207V19.6336H99.9248ZM101.739 26.2696H106.393V25.144H101.739V26.2696ZM102.092 17.836H106.04V16.492H102.092V17.836ZM110.341 24.7912V14.812H116.288V24.7912H114.81V16.9288H112.038V24.7912H110.341ZM110.106 29.848V27.6304C111.937 27.2776 112.558 25.7152 112.558 23.8168V18.1888H114.238V23.8168C114.238 24.1528 114.222 24.472 114.205 24.7744C115.414 25.9336 116.288 27.6808 116.708 29.68H114.709C114.524 28.588 114.238 27.664 113.701 26.9248C113.062 28.4536 111.87 29.4448 110.106 29.848ZM116.775 22.288V15.8032H118.069L117.598 14.56H119.749L120.219 15.8032H122L122.47 14.56H124.621L124.15 15.8032H125.276V22.288H116.775ZM117.044 29.512V22.9936H125.024V29.512H117.044ZM118.556 20.5912H120.337V17.5H118.556V20.5912ZM118.69 17.9032H119.732L120.202 20.188H119.161L118.69 17.9032ZM119.161 27.9496H122.907V26.9752H119.161V27.9496ZM119.161 25.5136H122.907V24.556H119.161V25.5136ZM121.714 20.5912H123.495V17.5H121.714V20.5912ZM121.849 20.188L122.319 17.9032H123.361L122.89 20.188H121.849Z" fill="#7935FF"/>
<defs>
<clipPath id="clip0_44_43">
<rect width="19.2" height="19.2" fill="white" transform="translate(18 12.9)"/>
</clipPath>
</defs>
</svg>
