<svg width="121" height="37" viewBox="0 0 121 37" fill="none" xmlns="http://www.w3.org/2000/svg">
<rect x="2" y="1.5" width="117" height="34" rx="6.5" fill="#FFF1EB"/>
<rect x="2" y="1.5" width="117" height="34" rx="6.5" stroke="#7935FF" stroke-width="3"/>
<g clip-path="url(#clip0_44_43)">
<path d="M21.5018 19.9875C21.2923 19.9875 21.1235 20.1563 21.1235 20.3658C21.1235 20.5752 21.2923 20.744 21.5018 20.744C21.7112 20.744 21.88 20.5752 21.88 20.3658C21.88 20.1563 21.7112 19.9875 21.5018 19.9875ZM25.0716 21.1222C24.8622 21.1222 24.6934 21.291 24.6934 21.5005C24.6934 21.7099 24.8622 21.8787 25.0716 21.8787C25.281 21.8787 25.4498 21.7099 25.4498 21.5005C25.4498 21.2942 25.281 21.1254 25.0716 21.1222Z" fill="#8F66DF"/>
<path d="M30.7858 21.0128C30.6233 20.9128 30.4357 20.8503 30.245 20.8315C30.667 19.8031 30.9359 18.4558 30.02 17.1179C28.6258 15.0767 26.6221 14.0107 24.0682 13.9607C23.3398 13.9451 22.4833 13.9795 21.5768 14.017C20.5234 14.0576 19.1198 14.1139 18.1695 14.0357C18.3602 13.9326 18.5634 13.8325 18.7384 13.7481C19.4105 13.4199 19.9357 13.1667 19.7606 12.7166C19.6668 12.454 19.3949 12.3165 18.9448 12.304C18.0007 12.2821 15.9595 12.8291 15.5937 13.7513C15.3874 14.2702 15.353 15.2705 17.4443 16.1582C18.3039 16.524 20.7359 16.9679 21.6737 17.0616C21.8863 17.0804 22.0957 17.1242 22.2958 17.1992C22.0801 17.3399 21.8613 17.4899 21.6393 17.6399C21.2548 17.4211 20.6234 17.1617 20.1545 17.4805C19.9794 17.5931 19.87 17.7837 19.8638 17.9932C19.8575 18.2495 20.0138 18.5027 20.1889 18.7028C19.498 19.2561 18.9385 19.7906 18.7384 20.2032C18.5165 20.7096 18.4258 21.5411 18.8416 22.3507C19.3668 23.3792 20.5234 24.095 22.2864 24.4826C24.5902 24.9859 26.5783 24.5326 27.8943 23.8387C28.6258 23.4511 29.1478 22.9916 29.3979 22.5821C29.476 22.6071 29.5542 22.6321 29.6355 22.6571C29.748 22.6915 29.8605 22.7258 29.9668 22.7634C30.3138 22.8853 30.7014 22.8665 30.9984 22.7196L31.014 22.7102C31.2297 22.6008 31.3954 22.407 31.4704 22.1757C31.6548 21.5567 31.114 21.2191 30.7858 21.0128ZM20.961 18.112L20.7515 18.2651C20.689 18.2026 20.6328 18.1307 20.589 18.0526C20.6703 18.0276 20.8109 18.0557 20.961 18.112ZM30.7858 21.9631C30.7702 22.01 30.7358 22.0475 30.6733 22.0819C30.5482 22.1444 30.3638 22.1475 30.1981 22.0913C30.0856 22.0506 29.9637 22.0131 29.8418 21.9756C29.6167 21.9068 29.2385 21.7912 29.1666 21.7037C29.0478 21.5474 28.8258 21.513 28.6664 21.6318C28.507 21.7506 28.4757 21.9725 28.5945 22.1319C28.6383 22.1851 28.6852 22.2319 28.7414 22.2726C28.1975 23.0259 25.8093 24.5264 22.4302 23.7855C20.9078 23.4511 19.8825 22.8446 19.4668 22.0256C19.1667 21.4348 19.2355 20.8284 19.3793 20.497C19.7919 19.6374 22.7772 17.6587 24.684 16.5365C24.8528 16.4365 24.909 16.2176 24.809 16.0488C24.709 15.88 24.4808 15.8113 24.3214 15.9238C24.1682 16.0145 23.6462 16.3239 22.9772 16.749C22.7521 16.5959 22.3614 16.4114 21.7362 16.3489C20.7453 16.2489 18.4571 15.8113 17.7163 15.4987C17.188 15.2736 15.9845 14.6797 16.2502 14.0107C16.3127 13.8544 16.6034 13.6044 17.2317 13.3637C17.66 13.2011 18.107 13.0917 18.5603 13.0354L18.4196 13.1042C17.9913 13.3136 17.5256 13.545 17.2099 13.82C17.188 13.8075 17.1661 13.7919 17.1473 13.7732C17.016 13.6325 16.7941 13.6231 16.6503 13.7575L16.6441 13.7638C16.5003 13.8982 16.4971 14.1233 16.6316 14.2671C16.7597 14.4015 16.9473 14.5015 17.1848 14.5765C17.1942 14.5796 17.2005 14.5828 17.2099 14.5859C18.0414 14.8422 19.5168 14.811 21.5955 14.7266C22.4927 14.6922 23.3398 14.6578 24.0463 14.6703C26.3907 14.7172 28.1506 15.6487 29.4292 17.5212C30.2138 18.6715 29.9324 19.8031 29.4823 20.7878C29.426 20.744 29.3729 20.694 29.3291 20.6408C29.2041 20.4908 28.9821 20.4658 28.829 20.5846C28.6758 20.7065 28.6508 20.9316 28.7727 21.0847C28.8446 21.1754 29.2166 21.6036 29.6761 21.5661H29.7011C29.7167 21.563 29.7292 21.5661 29.7449 21.563C30.0575 21.5067 30.2575 21.5192 30.442 21.638C30.6889 21.7943 30.8077 21.885 30.7858 21.9631Z" fill="#8F66DF"/>
</g>
<path d="M48.8 24.47C46.784 24.246 45.174 23.882 43.872 23.35C42.57 23.882 40.96 24.246 38.944 24.47V22.888C40.134 22.748 41.142 22.58 41.982 22.342C41.17 21.768 40.54 21.096 40.05 20.326C39.518 21.698 38.888 23.056 38.174 24.4H36.046C37.124 22.552 38.006 20.746 38.72 18.87H37.432V18.31H36.2V15.104H37.866L37.488 13.844H39.434L39.812 15.104H41.758L41.38 13.844H43.312L43.69 15.104H45.272L45.664 13.704H47.568L47.176 15.104H48.8V18.31H47.568V18.87H40.596L40.386 19.458L40.694 19.444H46.7L48.17 19.458C47.624 20.592 46.868 21.558 45.762 22.342C46.602 22.58 47.61 22.748 48.8 22.888V24.47ZM36.858 13.634V12.066C41.562 12.066 44.488 11.982 48.156 11.632V13.2C44.614 13.55 41.66 13.634 36.858 13.634ZM38.006 17.33H39.266L39.476 16.686H38.006V17.33ZM41.114 17.33H46.994V16.686H41.31C41.24 16.896 41.17 17.12 41.114 17.33ZM42.584 20.858C42.962 21.208 43.382 21.516 43.872 21.782C44.362 21.516 44.782 21.208 45.16 20.858H42.584ZM49.92 24.4C51.404 21.432 52.566 18.562 53.518 15.734H50.466L51.614 11.898H53.462L52.832 13.984H54.092C54.358 13.158 54.596 12.346 54.834 11.52H56.808C56.57 12.346 56.304 13.158 56.052 13.984H62.8V15.734H55.478C55.338 16.168 55.184 16.588 55.03 17.022H62.016C61.68 18.94 60.798 20.466 59.524 21.656C60.434 22.132 61.498 22.524 62.716 22.804V24.568C60.966 24.19 59.37 23.616 58.04 22.79C56.71 23.616 55.114 24.19 53.364 24.568V22.804C54.582 22.524 55.646 22.132 56.556 21.656C55.646 20.802 54.932 19.78 54.484 18.562C53.756 20.522 52.958 22.468 52.062 24.4H49.92ZM56.444 18.702C56.836 19.444 57.368 20.102 58.04 20.662C58.712 20.102 59.244 19.444 59.636 18.702H56.444ZM58.698 11.73H60.518L61.064 13.704H59.244L58.698 11.73ZM76.212 12.542V21.53H71.326V22.636H77.08V24.4H69.534V21.53H64.648V12.542H69.534V11.52H71.326V12.542H76.212ZM66.454 19.738H69.534V17.918H66.454V19.738ZM66.454 16.154H69.534V14.334H66.454V16.154ZM71.326 19.738H74.406V17.918H71.326V19.738ZM71.326 16.154H74.406V14.334H71.326V16.154ZM88.994 18.268H85.116V19.206H88.994V18.268ZM78.144 20.326V18.38L79.74 18.002V15.44H78.284V13.676H79.74V11.73H81.56V13.676H82.68V15.44H81.56V17.568L82.82 17.26V19.206L81.56 19.514V24.4H78.522V22.706H79.74V19.948L78.144 20.326ZM83.31 24.4V16.714H90.8V24.4H88.994V22.972H85.116V24.4H83.31ZM83.604 16.028V11.912H90.506V16.028H83.604ZM85.116 21.558H88.994V20.62H85.116V21.558ZM85.41 14.53H88.7V13.41H85.41V14.53ZM92.284 20.326V12.01H97.24V20.326H96.008V13.774H93.698V20.326H92.284ZM92.088 24.54V22.692C93.614 22.398 94.132 21.096 94.132 19.514V14.824H95.532V19.514C95.532 19.794 95.518 20.06 95.504 20.312C96.512 21.278 97.24 22.734 97.59 24.4H95.924C95.77 23.49 95.532 22.72 95.084 22.104C94.552 23.378 93.558 24.204 92.088 24.54ZM97.646 18.24V12.836H98.724L98.332 11.8H100.124L100.516 12.836H102L102.392 11.8H104.184L103.792 12.836H104.73V18.24H97.646ZM97.87 24.26V18.828H104.52V24.26H97.87ZM99.13 16.826H100.614V14.25H99.13V16.826ZM99.242 14.586H100.11L100.502 16.49H99.634L99.242 14.586ZM99.634 22.958H102.756V22.146H99.634V22.958ZM99.634 20.928H102.756V20.13H99.634V20.928ZM101.762 16.826H103.246V14.25H101.762V16.826ZM101.874 16.49L102.266 14.586H103.134L102.742 16.49H101.874Z" fill="#7935FF"/>
<defs>
<clipPath id="clip0_44_43">
<rect width="16" height="16" fill="white" transform="translate(15.5 10.5)"/>
</clipPath>
</defs>
</svg>
