<svg width="146" height="46" viewBox="0 0 146 46" fill="none" xmlns="http://www.w3.org/2000/svg">
<rect x="2.25" y="1.8" width="142.2" height="42" rx="7.5" fill="#FFF1EB"/>
<rect x="2.25" y="1.8" width="142.2" height="42" rx="7.5" stroke="#7935FF" stroke-width="3"/>
<g clip-path="url(#clip0_44_43)">
<path d="M25.9521 24.585C25.7008 24.585 25.4982 24.7876 25.4982 25.0389C25.4982 25.2902 25.7008 25.4928 25.9521 25.4928C26.2034 25.4928 26.406 25.2902 26.406 25.0389C26.406 24.7876 26.2034 24.585 25.9521 24.585ZM30.2359 25.9467C29.9846 25.9467 29.782 26.1492 29.782 26.4006C29.782 26.6519 29.9846 26.8545 30.2359 26.8545C30.4872 26.8545 30.6898 26.6519 30.6898 26.4006C30.6898 26.153 30.4872 25.9504 30.2359 25.9467Z" fill="#8F66DF"/>
<path d="M37.093 25.8154C36.8979 25.6954 36.6729 25.6203 36.444 25.5978C36.9504 24.3637 37.273 22.747 36.174 21.1415C34.501 18.692 32.0965 17.4129 29.0318 17.3529C28.1578 17.3341 27.13 17.3754 26.0422 17.4204C24.778 17.4691 23.0938 17.5367 21.9534 17.4429C22.1823 17.3191 22.4261 17.1991 22.6361 17.0978C23.4426 16.7039 24.0728 16.4001 23.8628 15.8599C23.7502 15.5448 23.4239 15.3798 22.8837 15.3648C21.7509 15.3385 19.3014 15.9949 18.8625 17.1015C18.6149 17.7242 18.5737 18.9246 21.0832 19.9899C22.1147 20.4288 25.0331 20.9614 26.1584 21.074C26.4135 21.0965 26.6649 21.149 26.9049 21.239C26.6461 21.4078 26.3835 21.5879 26.1172 21.7679C25.6558 21.5054 24.8981 21.194 24.3354 21.5766C24.1253 21.7117 23.994 21.9405 23.9865 22.1918C23.979 22.4994 24.1666 22.8032 24.3767 23.0433C23.5477 23.7073 22.8762 24.3487 22.6361 24.8439C22.3698 25.4515 22.261 26.4493 22.7599 27.4209C23.3901 28.655 24.778 29.514 26.8937 29.9792C29.6583 30.5831 32.044 30.0392 33.6232 29.2064C34.501 28.7413 35.1274 28.1899 35.4275 27.6985C35.5213 27.7285 35.615 27.7585 35.7126 27.7885C35.8476 27.8298 35.9827 27.871 36.1102 27.916C36.5266 28.0623 36.9917 28.0398 37.3481 27.8635L37.3668 27.8523C37.6256 27.721 37.8245 27.4884 37.9145 27.2108C38.1358 26.4681 37.4869 26.063 37.093 25.8154ZM25.3032 22.3344L25.0519 22.5182C24.9768 22.4431 24.9093 22.3569 24.8568 22.2631C24.9543 22.2331 25.1231 22.2668 25.3032 22.3344ZM37.093 26.9557C37.0742 27.012 37.033 27.057 36.9579 27.0983C36.8079 27.1733 36.5866 27.1771 36.3878 27.1095C36.2527 27.0608 36.1064 27.0158 35.9601 26.9707C35.6901 26.8882 35.2362 26.7494 35.1499 26.6444C35.0074 26.4568 34.741 26.4156 34.5497 26.5581C34.3584 26.7007 34.3209 26.967 34.4634 27.1583C34.516 27.2221 34.5722 27.2783 34.6397 27.3271C33.9871 28.2311 31.1212 30.0317 27.0662 29.1426C25.2394 28.7413 24.0091 28.0136 23.5102 27.0308C23.15 26.3218 23.2326 25.5941 23.4051 25.1965C23.9003 24.1649 27.4826 21.7904 29.7708 20.4438C29.9733 20.3237 30.0409 20.0612 29.9208 19.8586C29.8008 19.656 29.527 19.5735 29.3357 19.7086C29.1518 19.8173 28.5254 20.1887 27.7227 20.6989C27.4526 20.5151 26.9837 20.2937 26.2335 20.2187C25.0444 20.0987 22.2985 19.5735 21.4095 19.1984C20.7756 18.9283 19.3314 18.2156 19.6502 17.4129C19.7253 17.2253 20.0741 16.9252 20.8281 16.6364C21.342 16.4413 21.8784 16.31 22.4223 16.2425L22.2535 16.325C21.7396 16.5764 21.1807 16.854 20.8018 17.1841C20.7756 17.169 20.7493 17.1503 20.7268 17.1278C20.5693 16.959 20.3029 16.9477 20.1304 17.109L20.1229 17.1165C19.9503 17.2778 19.9466 17.5479 20.1079 17.7205C20.2617 17.8818 20.4867 18.0018 20.7718 18.0918C20.7831 18.0956 20.7906 18.0993 20.8018 18.1031C21.7996 18.4107 23.5702 18.3732 26.0647 18.2719C27.1412 18.2306 28.1578 18.1894 29.0056 18.2044C31.8189 18.2606 33.9308 19.3785 35.465 21.6254C36.4065 23.0058 36.0689 24.3637 35.5288 25.5453C35.4612 25.4928 35.3975 25.4328 35.345 25.369C35.1949 25.189 34.9286 25.159 34.7448 25.3015C34.561 25.4478 34.531 25.7179 34.6773 25.9017C34.7635 26.0105 35.2099 26.5244 35.7613 26.4793H35.7913C35.8101 26.4756 35.8251 26.4793 35.8439 26.4756C36.219 26.4081 36.459 26.4231 36.6804 26.5656C36.9767 26.7532 37.1192 26.862 37.093 26.9557Z" fill="#8F66DF"/>
</g>
<path d="M58.91 30.064C56.4908 29.7952 54.5588 29.3584 52.9964 28.72C51.434 29.3584 49.502 29.7952 47.0828 30.064V28.1656C48.5108 27.9976 49.7204 27.796 50.7284 27.5104C49.754 26.8216 48.998 26.0152 48.41 25.0912C47.7716 26.7376 47.0156 28.3672 46.1588 29.98H43.6052C44.8988 27.7624 45.9572 25.5952 46.814 23.344H45.2684V22.672H43.79V18.8248H45.7892L45.3356 17.3128H47.6708L48.1244 18.8248H50.4596L50.006 17.3128H52.3244L52.778 18.8248H54.6764L55.1468 17.1448H57.4316L56.9612 18.8248H58.91V22.672H57.4316V23.344H49.0652L48.8132 24.0496L49.1828 24.0328H56.39L58.154 24.0496C57.4988 25.4104 56.5916 26.5696 55.2644 27.5104C56.2724 27.796 57.482 27.9976 58.91 28.1656V30.064ZM44.5796 17.0608V15.1792C50.2244 15.1792 53.7356 15.0784 58.1372 14.6584V16.54C53.8868 16.96 50.342 17.0608 44.5796 17.0608ZM45.9572 21.496H47.4692L47.7212 20.7232H45.9572V21.496ZM49.6868 21.496H56.7428V20.7232H49.922C49.838 20.9752 49.754 21.244 49.6868 21.496ZM51.4508 25.7296C51.9044 26.1496 52.4084 26.5192 52.9964 26.8384C53.5844 26.5192 54.0884 26.1496 54.542 25.7296H51.4508ZM60.254 29.98C62.0348 26.4184 63.4292 22.9744 64.5716 19.5808H60.9092L62.2868 14.9776H64.5044L63.7484 17.4808H65.2604C65.5796 16.4896 65.8652 15.5152 66.1508 14.524H68.5196C68.234 15.5152 67.9148 16.4896 67.6124 17.4808H75.71V19.5808H66.9236C66.7556 20.1016 66.5708 20.6056 66.386 21.1264H74.7692C74.366 23.428 73.3076 25.2592 71.7788 26.6872C72.8708 27.2584 74.1476 27.7288 75.6092 28.0648V30.1816C73.5092 29.728 71.594 29.0392 69.998 28.048C68.402 29.0392 66.4868 29.728 64.3868 30.1816V28.0648C65.8484 27.7288 67.1252 27.2584 68.2172 26.6872C67.1252 25.6624 66.2684 24.436 65.7308 22.9744C64.8572 25.3264 63.8996 27.6616 62.8244 29.98H60.254ZM68.0828 23.1424C68.5532 24.0328 69.1916 24.8224 69.998 25.4944C70.8044 24.8224 71.4428 24.0328 71.9132 23.1424H68.0828ZM70.7876 14.776H72.9716L73.6268 17.1448H71.4428L70.7876 14.776ZM91.8044 15.7504V26.536H85.9412V27.8632H92.846V29.98H83.7908V26.536H77.9276V15.7504H83.7908V14.524H85.9412V15.7504H91.8044ZM80.0948 24.3856H83.7908V22.2016H80.0948V24.3856ZM80.0948 20.0848H83.7908V17.9008H80.0948V20.0848ZM85.9412 24.3856H89.6372V22.2016H85.9412V24.3856ZM85.9412 20.0848H89.6372V17.9008H85.9412V20.0848ZM107.143 22.6216H102.489V23.7472H107.143V22.6216ZM94.1228 25.0912V22.756L96.038 22.3024V19.228H94.2908V17.1112H96.038V14.776H98.222V17.1112H99.566V19.228H98.222V21.7816L99.734 21.412V23.7472L98.222 24.1168V29.98H94.5764V27.9472H96.038V24.6376L94.1228 25.0912ZM100.322 29.98V20.7568H109.31V29.98H107.143V28.2664H102.489V29.98H100.322ZM100.675 19.9336V14.9944H108.957V19.9336H100.675ZM102.489 26.5696H107.143V25.444H102.489V26.5696ZM102.842 18.136H106.79V16.792H102.842V18.136ZM111.091 25.0912V15.112H117.038V25.0912H115.56V17.2288H112.788V25.0912H111.091ZM110.856 30.148V27.9304C112.687 27.5776 113.308 26.0152 113.308 24.1168V18.4888H114.988V24.1168C114.988 24.4528 114.972 24.772 114.955 25.0744C116.164 26.2336 117.038 27.9808 117.458 29.98H115.459C115.274 28.888 114.988 27.964 114.451 27.2248C113.812 28.7536 112.62 29.7448 110.856 30.148ZM117.525 22.588V16.1032H118.819L118.348 14.86H120.499L120.969 16.1032H122.75L123.22 14.86H125.371L124.9 16.1032H126.026V22.588H117.525ZM117.794 29.812V23.2936H125.774V29.812H117.794ZM119.306 20.8912H121.087V17.8H119.306V20.8912ZM119.44 18.2032H120.482L120.952 20.488H119.911L119.44 18.2032ZM119.911 28.2496H123.657V27.2752H119.911V28.2496ZM119.911 25.8136H123.657V24.856H119.911V25.8136ZM122.464 20.8912H124.245V17.8H122.464V20.8912ZM122.599 20.488L123.069 18.2032H124.111L123.64 20.488H122.599Z" fill="#7935FF"/>
<defs>
<clipPath id="clip0_44_43">
<rect width="19.2" height="19.2" fill="white" transform="translate(18.75 13.2)"/>
</clipPath>
</defs>
</svg>
