<svg width="121" height="37" viewBox="0 0 121 37" fill="none" xmlns="http://www.w3.org/2000/svg">
<rect x="2" y="1.5" width="117" height="34" rx="6.5" fill="#FFF1EB"/>
<rect x="2" y="1.5" width="117" height="34" rx="6.5" stroke="#D74303" stroke-width="3"/>
<g opacity="0.8">
<path d="M17.5 12.5H22.5V20.5H17.5V12.5Z" fill="#D74303"/>
<path d="M18.5 11.5H24.5V17.5H18.5V11.5Z" fill="#D74303"/>
<path d="M17.5 20.5H20.5V24.5H17.5V20.5Z" fill="#D74303"/>
<path d="M18.5 21.5H21.5V25.5H18.5V21.5Z" fill="#D74303"/>
<path d="M19.5 22.5H22.5V25.5H19.5V22.5Z" fill="#D74303"/>
<path d="M22.5 23.5H28.5V25.5H22.5V23.5Z" fill="#D74303"/>
<path d="M24.5 22.5H29.5V24.5H24.5V22.5Z" fill="#D74303"/>
<path d="M25.5 21.5H29.5V23.5H25.5V21.5Z" fill="#D74303"/>
<path d="M26.5 16.5H29.5V21.5H26.5V16.5Z" fill="#D74303"/>
<path d="M24.5 16.5H26.5V20.5H24.5V16.5Z" fill="#D74303"/>
<path d="M28.5 15.5H29.5V16.5H28.5V15.5Z" fill="#D74303"/>
<path d="M27.5 14.5H28.5V15.5H27.5V14.5Z" fill="#D74303"/>
<path d="M26.5 13.5H27.5V14.5H26.5V13.5Z" fill="#D74303"/>
<path d="M25.5 12.5H26.5V13.5H25.5V12.5Z" fill="#D74303"/>
<path d="M24.5 11.5H25.5V12.5H24.5V11.5Z" fill="#D74303"/>
</g>
<path d="M40.736 24.4V14.096H36.06V12.192H48.94V14.096H42.668V24.4H40.736ZM43.634 15.902H45.622L48.17 21.88H46.182L43.634 15.902ZM50.2 23.798V22.314L53.462 22.132V21.404H50.13L51.348 18.912H50.382V17.4H52.076L52.314 16.91H54.148L53.91 17.4H57.648V18.912H53.182L52.678 19.948H53.462V19.276H55.254V19.948H57.648V21.404H55.254V22.02L57.284 21.908V22.552C57.928 22.272 58.53 21.908 59.034 21.502C58.306 20.186 57.956 18.548 57.928 16.658H50.2V14.95H53.238V13.984H50.76V12.304H53.238V11.674H55.016V12.304H57.2V13.984H55.016V14.95H57.914V11.674H59.692V14.95H62.8V16.658H59.678C59.706 17.904 59.846 19.01 60.224 19.948C60.658 19.234 60.98 18.45 61.19 17.582H62.8C62.478 19.024 61.946 20.284 61.162 21.39C61.61 21.838 62.156 22.23 62.87 22.552V24.54C61.708 24.19 60.756 23.616 60.028 22.86C59.16 23.546 58.054 24.134 56.836 24.54V23.434L55.254 23.518V24.4H53.462V23.616L50.2 23.798ZM60.084 11.954H61.792L62.576 14.39H60.868L60.084 11.954ZM65.32 24.4V18.058C64.942 18.506 64.522 18.926 64.06 19.318V16.532C65.152 15.23 65.866 13.634 66.272 11.8H68.05C67.854 13.004 67.532 14.096 67.112 15.104V24.4H65.32ZM67.742 17.512V15.776H70.248L70.57 14.502H68.204V12.794H71.004L71.256 11.8H73.174L72.922 12.794H76.38V14.502H72.488L72.152 15.776H76.8V17.512H71.718L71.452 18.52H76.058C75.848 19.822 75.246 21.11 74.168 22.146C74.896 22.314 75.568 22.51 76.212 22.72V24.54C73.65 23.742 71.158 23.252 68.68 23.112V21.334C69.926 21.432 71.088 21.572 72.18 21.754C72.852 21.25 73.356 20.704 73.706 20.088H69.142L69.8 17.512H67.742ZM84.08 24.26C82.372 24.26 81.308 24.078 80.398 23.616C80.314 23.868 80.244 24.134 80.16 24.4H78.228C79.124 21.908 79.474 19.976 79.572 17.61H77.92V15.79H81.392C81.392 18.114 81.252 19.92 80.832 21.866C81.672 22.328 82.638 22.51 84.08 22.51H90.94V24.26H84.08ZM78.494 11.8H80.384L81.35 14.838H79.46L78.494 11.8ZM81.7 17.932V16.21H85.382L85.368 14.698H82.008V12.948H83.394L82.932 11.688H84.738L85.2 12.948H87.314L87.776 11.688H89.582L89.12 12.948H90.506V14.698H87.16V16.21H90.814V17.932H87.65C88.294 19.164 89.232 19.808 90.772 20.354V22.118C88.364 21.39 87.02 20.27 86.25 18.632C85.48 20.27 84.136 21.39 81.728 22.118V20.354C83.268 19.808 84.206 19.164 84.85 17.932H81.7ZM101.16 24.4V22.58H102.546V13.956H97.002V12.108H104.38L104.366 24.4H101.16ZM92.62 14.768H94.468V24.4H92.634L92.62 14.768ZM93.292 11.8H95.28L96.456 14.404H94.468L93.292 11.8Z" fill="#D74303"/>
</svg>
