<svg width="147" height="46" viewBox="0 0 147 46" fill="none" xmlns="http://www.w3.org/2000/svg">
<rect x="2.45001" y="1.8" width="142.2" height="42" rx="7.5" fill="#FFF1EB"/>
<rect x="2.45001" y="1.8" width="142.2" height="42" rx="7.5" stroke="#D74303" stroke-width="3"/>
<g opacity="0.8">
<path d="M21.35 15.6H27.35V25.2H21.35V15.6Z" fill="#D74303"/>
<path d="M22.55 14.4H29.75V21.6H22.55V14.4Z" fill="#D74303"/>
<path d="M21.35 25.2H24.95V30H21.35V25.2Z" fill="#D74303"/>
<path d="M22.55 26.4H26.15V31.2H22.55V26.4Z" fill="#D74303"/>
<path d="M23.75 27.6H27.35V31.2H23.75V27.6Z" fill="#D74303"/>
<path d="M27.35 28.8H34.55V31.2H27.35V28.8Z" fill="#D74303"/>
<path d="M29.75 27.6H35.75V30H29.75V27.6Z" fill="#D74303"/>
<path d="M30.95 26.4H35.75V28.8H30.95V26.4Z" fill="#D74303"/>
<path d="M32.15 20.4H35.75V26.4H32.15V20.4Z" fill="#D74303"/>
<path d="M29.75 20.4H32.15V25.2H29.75V20.4Z" fill="#D74303"/>
<path d="M34.55 19.2H35.75V20.4H34.55V19.2Z" fill="#D74303"/>
<path d="M33.35 18H34.55V19.2H33.35V18Z" fill="#D74303"/>
<path d="M32.15 16.8H33.35V18H32.15V16.8Z" fill="#D74303"/>
<path d="M30.95 15.6H32.15V16.8H30.95V15.6Z" fill="#D74303"/>
<path d="M29.75 14.4H30.95V15.6H29.75V14.4Z" fill="#D74303"/>
</g>
<path d="M49.4332 29.98V17.6152H43.822V15.3304H59.278V17.6152H51.7516V29.98H49.4332ZM52.9108 19.7824H55.2964L58.354 26.956H55.9684L52.9108 19.7824ZM60.79 29.2576V27.4768L64.7044 27.2584V26.3848H60.706L62.1676 23.3944H61.0084V21.58H63.0412L63.3268 20.992H65.5276L65.242 21.58H69.7276V23.3944H64.3684L63.7636 24.6376H64.7044V23.8312H66.8548V24.6376H69.7276V26.3848H66.8548V27.124L69.2908 26.9896V27.7624C70.0636 27.4264 70.786 26.9896 71.3908 26.5024C70.5172 24.9232 70.0972 22.9576 70.0636 20.6896H60.79V18.64H64.4356V17.4808H61.462V15.4648H64.4356V14.7088H66.5692V15.4648H69.19V17.4808H66.5692V18.64H70.0468V14.7088H72.1804V18.64H75.91V20.6896H72.1636C72.1972 22.1848 72.3652 23.512 72.8188 24.6376C73.3396 23.7808 73.726 22.84 73.978 21.7984H75.91C75.5236 23.5288 74.8852 25.0408 73.9444 26.368C74.482 26.9056 75.1372 27.376 75.994 27.7624V30.148C74.5996 29.728 73.4572 29.0392 72.5836 28.132C71.542 28.9552 70.2148 29.6608 68.7532 30.148V28.8208L66.8548 28.9216V29.98H64.7044V29.0392L60.79 29.2576ZM72.6508 15.0448H74.7004L75.6412 17.968H73.5916L72.6508 15.0448ZM78.934 29.98V22.3696C78.4804 22.9072 77.9764 23.4112 77.422 23.8816V20.5384C78.7324 18.976 79.5892 17.0608 80.0764 14.86H82.21C81.9748 16.3048 81.5884 17.6152 81.0844 18.8248V29.98H78.934ZM81.8404 21.7144V19.6312H84.8476L85.234 18.1024H82.3948V16.0528H85.7548L86.0572 14.86H88.3588L88.0564 16.0528H92.206V18.1024H87.5356L87.1324 19.6312H92.71V21.7144H86.6116L86.2924 22.924H91.8196C91.5676 24.4864 90.8452 26.032 89.5516 27.2752C90.4252 27.4768 91.2316 27.712 92.0044 27.964V30.148C88.93 29.1904 85.9396 28.6024 82.966 28.4344V26.3008C84.4612 26.4184 85.8556 26.5864 87.166 26.8048C87.9724 26.2 88.5772 25.5448 88.9972 24.8056H83.5204L84.31 21.7144H81.8404ZM101.446 29.812C99.3964 29.812 98.1196 29.5936 97.0276 29.0392C96.9268 29.3416 96.8428 29.6608 96.742 29.98H94.4236C95.4988 26.9896 95.9188 24.6712 96.0364 21.832H94.054V19.648H98.2204C98.2204 22.4368 98.0524 24.604 97.5484 26.9392C98.5564 27.4936 99.7156 27.712 101.446 27.712H109.678V29.812H101.446ZM94.7428 14.86H97.0108L98.17 18.5056H95.902L94.7428 14.86ZM98.59 22.2184V20.152H103.008L102.992 18.3376H98.9596V16.2376H100.623L100.068 14.7256H102.236L102.79 16.2376H105.327L105.881 14.7256H108.048L107.494 16.2376H109.157V18.3376H105.142V20.152H109.527V22.2184H105.73C106.503 23.6968 107.628 24.4696 109.476 25.1248V27.2416C106.587 26.368 104.974 25.024 104.05 23.0584C103.126 25.024 101.513 26.368 98.6236 27.2416V25.1248C100.472 24.4696 101.597 23.6968 102.37 22.2184H98.59ZM121.942 29.98V27.796H123.605V17.4472H116.952V15.2296H125.806L125.789 29.98H121.942ZM111.694 18.4216H113.912V29.98H111.711L111.694 18.4216ZM112.5 14.86H114.886L116.297 17.9848H113.912L112.5 14.86Z" fill="#D74303"/>
</svg>
