<svg width="146" height="45" viewBox="0 0 146 45" fill="none" xmlns="http://www.w3.org/2000/svg">
<rect x="1.5" y="1.5" width="142.2" height="42" rx="12.5" fill="#FFF8F5"/>
<rect x="1.5" y="1.5" width="142.2" height="42" rx="12.5" stroke="#D74303" stroke-width="3"/>
<g opacity="0.8">
<path d="M20.4 15.3H26.4V24.9H20.4V15.3Z" fill="#D74303"/>
<path d="M21.6 14.1H28.8V21.3H21.6V14.1Z" fill="#D74303"/>
<path d="M20.4 24.9H24V29.7H20.4V24.9Z" fill="#D74303"/>
<path d="M21.6 26.1H25.2V30.9H21.6V26.1Z" fill="#D74303"/>
<path d="M22.8 27.3H26.4V30.9H22.8V27.3Z" fill="#D74303"/>
<path d="M26.4 28.5H33.6V30.9H26.4V28.5Z" fill="#D74303"/>
<path d="M28.8 27.3H34.8V29.7H28.8V27.3Z" fill="#D74303"/>
<path d="M30 26.1H34.8V28.5H30V26.1Z" fill="#D74303"/>
<path d="M31.2 20.1H34.8V26.1H31.2V20.1Z" fill="#D74303"/>
<path d="M28.8 20.1H31.2V24.9H28.8V20.1Z" fill="#D74303"/>
<path d="M33.6 18.9H34.8V20.1H33.6V18.9Z" fill="#D74303"/>
<path d="M32.4 17.7H33.6V18.9H32.4V17.7Z" fill="#D74303"/>
<path d="M31.2 16.5H32.4V17.7H31.2V16.5Z" fill="#D74303"/>
<path d="M30 15.3H31.2V16.5H30V15.3Z" fill="#D74303"/>
<path d="M28.8 14.1H30V15.3H28.8V14.1Z" fill="#D74303"/>
</g>
<path d="M48.4832 29.68V17.3152H42.872V15.0304H58.328V17.3152H50.8016V29.68H48.4832ZM51.9608 19.4824H54.3464L57.404 26.656H55.0184L51.9608 19.4824ZM59.84 28.9576V27.1768L63.7544 26.9584V26.0848H59.756L61.2176 23.0944H60.0584V21.28H62.0912L62.3768 20.692H64.5776L64.292 21.28H68.7776V23.0944H63.4184L62.8136 24.3376H63.7544V23.5312H65.9048V24.3376H68.7776V26.0848H65.9048V26.824L68.3408 26.6896V27.4624C69.1136 27.1264 69.836 26.6896 70.4408 26.2024C69.5672 24.6232 69.1472 22.6576 69.1136 20.3896H59.84V18.34H63.4856V17.1808H60.512V15.1648H63.4856V14.4088H65.6192V15.1648H68.24V17.1808H65.6192V18.34H69.0968V14.4088H71.2304V18.34H74.96V20.3896H71.2136C71.2472 21.8848 71.4152 23.212 71.8688 24.3376C72.3896 23.4808 72.776 22.54 73.028 21.4984H74.96C74.5736 23.2288 73.9352 24.7408 72.9944 26.068C73.532 26.6056 74.1872 27.076 75.044 27.4624V29.848C73.6496 29.428 72.5072 28.7392 71.6336 27.832C70.592 28.6552 69.2648 29.3608 67.8032 29.848V28.5208L65.9048 28.6216V29.68H63.7544V28.7392L59.84 28.9576ZM71.7008 14.7448H73.7504L74.6912 17.668H72.6416L71.7008 14.7448ZM77.984 29.68V22.0696C77.5304 22.6072 77.0264 23.1112 76.472 23.5816V20.2384C77.7824 18.676 78.6392 16.7608 79.1264 14.56H81.26C81.0248 16.0048 80.6384 17.3152 80.1344 18.5248V29.68H77.984ZM80.8904 21.4144V19.3312H83.8976L84.284 17.8024H81.4448V15.7528H84.8048L85.1072 14.56H87.4088L87.1064 15.7528H91.256V17.8024H86.5856L86.1824 19.3312H91.76V21.4144H85.6616L85.3424 22.624H90.8696C90.6176 24.1864 89.8952 25.732 88.6016 26.9752C89.4752 27.1768 90.2816 27.412 91.0544 27.664V29.848C87.98 28.8904 84.9896 28.3024 82.016 28.1344V26.0008C83.5112 26.1184 84.9056 26.2864 86.216 26.5048C87.0224 25.9 87.6272 25.2448 88.0472 24.5056H82.5704L83.36 21.4144H80.8904ZM100.496 29.512C98.4464 29.512 97.1696 29.2936 96.0776 28.7392C95.9768 29.0416 95.8928 29.3608 95.792 29.68H93.4736C94.5488 26.6896 94.9688 24.3712 95.0864 21.532H93.104V19.348H97.2704C97.2704 22.1368 97.1024 24.304 96.5984 26.6392C97.6064 27.1936 98.7656 27.412 100.496 27.412H108.728V29.512H100.496ZM93.7928 14.56H96.0608L97.22 18.2056H94.952L93.7928 14.56ZM97.64 21.9184V19.852H102.058L102.042 18.0376H98.0096V15.9376H99.6728L99.1184 14.4256H101.286L101.84 15.9376H104.377L104.931 14.4256H107.098L106.544 15.9376H108.207V18.0376H104.192V19.852H108.577V21.9184H104.78C105.553 23.3968 106.678 24.1696 108.526 24.8248V26.9416C105.637 26.068 104.024 24.724 103.1 22.7584C102.176 24.724 100.563 26.068 97.6736 26.9416V24.8248C99.5216 24.1696 100.647 23.3968 101.42 21.9184H97.64ZM120.992 29.68V27.496H122.655V17.1472H116.002V14.9296H124.856L124.839 29.68H120.992ZM110.744 18.1216H112.962V29.68H110.761L110.744 18.1216ZM111.55 14.56H113.936L115.347 17.6848H112.962L111.55 14.56Z" fill="#D74303"/>
</svg>
