<svg width="129" height="45" viewBox="0 0 129 45" fill="none" xmlns="http://www.w3.org/2000/svg">
<rect x="1.5" y="1.5" width="125.2" height="42" rx="12.5" fill="#EEF9FF"/>
<rect x="1.5" y="1.5" width="125.2" height="42" rx="12.5" stroke="#0097FF" stroke-width="3"/>
<g opacity="0.8">
<path d="M20.4 15.3H26.4V23.7H20.4V15.3Z" fill="#0097FF"/>
<path d="M20.4 26.1H26.4V29.7H20.4V26.1Z" fill="#0097FF"/>
<path d="M28.8 21.3H34.8V29.7H28.8V21.3Z" fill="#0097FF"/>
<path d="M28.8 15.3H34.8V18.9H28.8V15.3Z" fill="#0097FF"/>
</g>
<path d="M43.1072 24.7912V14.812H49.6424V24.7912H47.8784V16.9288H44.888V24.7912H43.1072ZM42.9056 29.848V27.6304C44.7872 27.2776 45.5264 25.7152 45.5264 23.8168V18.1216H47.24V23.8168C47.24 23.9848 47.24 24.1528 47.2232 24.3208C48.7352 25.4632 49.6592 27.412 50.1632 29.68H48.2816C48.0632 28.336 47.66 27.2608 46.8536 26.4376C46.232 28.252 44.888 29.4112 42.9056 29.848ZM50.3816 29.512V21.3808H52.7V14.476H54.884V16.6264H58.3616V18.8104H54.884V21.3808H57.6224V29.512H50.3816ZM52.4984 27.3448H55.5056V23.548H52.4984V27.3448ZM72.7256 29.68C71.7344 27.2608 71.264 24.9592 71.1296 22.5064H68.4584V27.5296H70.3736V29.68H66.308V14.896C69.1808 14.896 72.0368 14.7616 74.6912 14.4592V16.6096C74.204 16.66 73.7168 16.7272 73.2128 16.7608V20.356H74.96V22.5064H73.2464C73.3808 24.808 73.8344 27.2104 75.128 29.68H72.7256ZM59.5376 20.5744L62.5112 14.56H64.7288L62.3432 19.3648L62.948 19.7176L63.9896 17.5672H66.1232L63.2 23.548H65.5352V25.7152H59.7056L61.6544 21.7504L59.5376 20.5744ZM59.84 29.5792V27.412L65.6192 26.8576V29.0248L59.84 29.5792ZM68.4584 20.356H71.096V16.9288C70.2392 16.9792 69.3488 16.996 68.4584 17.0296V20.356ZM76.64 22.708V20.3896H91.76V22.708H76.64ZM94.9352 26.068V20.6584H107.065V26.068H104.881V22.54H97.1192V26.068H94.9352ZM93.44 29.7808V27.6976C96.9848 27.412 99.3536 25.9504 100.345 23.1448H102.68C102.394 24.1192 101.974 25.0096 101.42 25.816H103.57V27.5632H108.56V29.68H101.386V25.8496C99.824 28.0672 97.1864 29.5624 93.44 29.7808ZM93.776 19.6672V15.0136H95.8928V19.6672H93.776ZM97.2872 20.104V14.392H99.4544V20.104H97.2872ZM100.042 19.9528V17.7016C101.134 16.9456 101.941 15.9376 102.378 14.644H108.258V16.7272H103.554C102.814 18.1888 101.588 19.264 100.042 19.9528ZM104.058 17.2816H106.174L107.182 20.02H105.066L104.058 17.2816Z" fill="#0097FF"/>
</svg>
