<svg width="107" height="37" viewBox="0 0 107 37" fill="none" xmlns="http://www.w3.org/2000/svg">
<rect x="2" y="1.5" width="103" height="34" rx="6.5" fill="#E9F6FF"/>
<rect x="2" y="1.5" width="103" height="34" rx="6.5" stroke="#0097FF" stroke-width="3"/>
<g opacity="0.8">
<path d="M17.5 12.5H22.5V19.5H17.5V12.5Z" fill="#0097FF"/>
<path d="M17.5 21.5H22.5V24.5H17.5V21.5Z" fill="#0097FF"/>
<path d="M24.5 17.5H29.5V24.5H24.5V17.5Z" fill="#0097FF"/>
<path d="M24.5 12.5H29.5V15.5H24.5V12.5Z" fill="#0097FF"/>
</g>
<path d="M36.256 20.326V12.01H41.702V20.326H40.232V13.774H37.74V20.326H36.256ZM36.088 24.54V22.692C37.656 22.398 38.272 21.096 38.272 19.514V14.768H39.7V19.514C39.7 19.654 39.7 19.794 39.686 19.934C40.946 20.886 41.716 22.51 42.136 24.4H40.568C40.386 23.28 40.05 22.384 39.378 21.698C38.86 23.21 37.74 24.176 36.088 24.54ZM42.318 24.26V17.484H44.25V11.73H46.07V13.522H48.968V15.342H46.07V17.484H48.352V24.26H42.318ZM44.082 22.454H46.588V19.29H44.082V22.454ZM60.938 24.4C60.112 22.384 59.72 20.466 59.608 18.422H57.382V22.608H58.978V24.4H55.59V12.08C57.984 12.08 60.364 11.968 62.576 11.716V13.508C62.17 13.55 61.764 13.606 61.344 13.634V16.63H62.8V18.422H61.372C61.484 20.34 61.862 22.342 62.94 24.4H60.938ZM49.948 16.812L52.426 11.8H54.274L52.286 15.804L52.79 16.098L53.658 14.306H55.436L53 19.29H54.946V21.096H50.088L51.712 17.792L49.948 16.812ZM50.2 24.316V22.51L55.016 22.048V23.854L50.2 24.316ZM57.382 16.63H59.58V13.774C58.866 13.816 58.124 13.83 57.382 13.858V16.63ZM64.2 18.59V16.658H76.8V18.59H64.2ZM79.446 21.39V16.882H89.554V21.39H87.734V18.45H81.266V21.39H79.446ZM78.2 24.484V22.748C81.154 22.51 83.128 21.292 83.954 18.954H85.9C85.662 19.766 85.312 20.508 84.85 21.18H86.642V22.636H90.8V24.4H84.822V21.208C83.52 23.056 81.322 24.302 78.2 24.484ZM78.48 16.056V12.178H80.244V16.056H78.48ZM81.406 16.42V11.66H83.212V16.42H81.406ZM83.702 16.294V14.418C84.612 13.788 85.284 12.948 85.648 11.87H90.548V13.606H86.628C86.012 14.824 84.99 15.72 83.702 16.294ZM87.048 14.068H88.812L89.652 16.35H87.888L87.048 14.068Z" fill="#0097FF"/>
</svg>
