<svg width="130" height="46" viewBox="0 0 130 46" fill="none" xmlns="http://www.w3.org/2000/svg">
<rect x="2.45001" y="1.8" width="125.2" height="42" rx="7.5" fill="#E9F6FF"/>
<rect x="2.45001" y="1.8" width="125.2" height="42" rx="7.5" stroke="#0097FF" stroke-width="3"/>
<g opacity="0.8">
<path d="M21.35 15.6H27.35V24H21.35V15.6Z" fill="#0097FF"/>
<path d="M21.35 26.4H27.35V30H21.35V26.4Z" fill="#0097FF"/>
<path d="M29.75 21.6H35.75V30H29.75V21.6Z" fill="#0097FF"/>
<path d="M29.75 15.6H35.75V19.2H29.75V15.6Z" fill="#0097FF"/>
</g>
<path d="M44.0572 25.0912V15.112H50.5924V25.0912H48.8284V17.2288H45.838V25.0912H44.0572ZM43.8556 30.148V27.9304C45.7372 27.5776 46.4764 26.0152 46.4764 24.1168V18.4216H48.19V24.1168C48.19 24.2848 48.19 24.4528 48.1732 24.6208C49.6852 25.7632 50.6092 27.712 51.1132 29.98H49.2316C49.0132 28.636 48.61 27.5608 47.8036 26.7376C47.182 28.552 45.838 29.7112 43.8556 30.148ZM51.3316 29.812V21.6808H53.65V14.776H55.834V16.9264H59.3116V19.1104H55.834V21.6808H58.5724V29.812H51.3316ZM53.4484 27.6448H56.4556V23.848H53.4484V27.6448ZM73.6756 29.98C72.6844 27.5608 72.214 25.2592 72.0796 22.8064H69.4084V27.8296H71.3236V29.98H67.258V15.196C70.1308 15.196 72.9868 15.0616 75.6412 14.7592V16.9096C75.154 16.96 74.6668 17.0272 74.1628 17.0608V20.656H75.91V22.8064H74.1964C74.3308 25.108 74.7844 27.5104 76.078 29.98H73.6756ZM60.4876 20.8744L63.4612 14.86H65.6788L63.2932 19.6648L63.898 20.0176L64.9396 17.8672H67.0732L64.15 23.848H66.4852V26.0152H60.6556L62.6044 22.0504L60.4876 20.8744ZM60.79 29.8792V27.712L66.5692 27.1576V29.3248L60.79 29.8792ZM69.4084 20.656H72.046V17.2288C71.1892 17.2792 70.2988 17.296 69.4084 17.3296V20.656ZM77.59 23.008V20.6896H92.71V23.008H77.59ZM95.8852 26.368V20.9584H108.015V26.368H105.831V22.84H98.0692V26.368H95.8852ZM94.39 30.0808V27.9976C97.9348 27.712 100.304 26.2504 101.295 23.4448H103.63C103.344 24.4192 102.924 25.3096 102.37 26.116H104.52V27.8632H109.51V29.98H102.336V26.1496C100.774 28.3672 98.1364 29.8624 94.39 30.0808ZM94.726 19.9672V15.3136H96.8428V19.9672H94.726ZM98.2372 20.404V14.692H100.404V20.404H98.2372ZM100.992 20.2528V18.0016C102.084 17.2456 102.891 16.2376 103.328 14.944H109.208V17.0272H104.504C103.764 18.4888 102.538 19.564 100.992 20.2528ZM105.008 17.5816H107.124L108.132 20.32H106.016L105.008 17.5816Z" fill="#0097FF"/>
</svg>
