<svg width="160" height="37" viewBox="0 0 160 37" fill="none" xmlns="http://www.w3.org/2000/svg">
<rect x="1.5" y="1.5" width="156.5" height="34" rx="6.5" fill="#E7FFF8"/>
<rect x="1.5" y="1.5" width="156.5" height="34" rx="6.5" stroke="#0AC38B" stroke-width="3"/>
<path d="M19 14.5H21V16.5H19V14.5Z" fill="#0AC38B"/>
<path d="M18 15.5H20V17.5H18V15.5Z" fill="#0AC38B"/>
<path d="M17 16.5H19V18.5H17V16.5Z" fill="#0AC38B"/>
<path d="M17 18.5H19V20.5H17V18.5Z" fill="#0AC38B"/>
<path d="M18 19.5H20V21.5H18V19.5Z" fill="#0AC38B"/>
<path d="M19 20.5H21V22.5H19V20.5Z" fill="#0AC38B"/>
<path d="M25 14.5H27V16.5H25V14.5Z" fill="#0AC38B"/>
<path d="M26 15.5H28V17.5H26V15.5Z" fill="#0AC38B"/>
<path d="M27 16.5H29V18.5H27V16.5Z" fill="#0AC38B"/>
<path d="M25 20.5H27V22.5H25V20.5Z" fill="#0AC38B"/>
<path d="M26 19.5H28V21.5H26V19.5Z" fill="#0AC38B"/>
<path d="M27 18.5H29V20.5H27V18.5Z" fill="#0AC38B"/>
<path d="M28 17.5H30V19.5H28V17.5Z" fill="#0AC38B"/>
<path d="M16 17.5H18V19.5H16V17.5Z" fill="#0AC38B"/>
<path d="M38 23.75V22.25H39.5V23.75H38ZM36.5 22.25V19.25H38V22.25H36.5ZM39.5 22.25V19.25H41V22.25H39.5ZM35 19.25V13.25H36.5V19.25H35ZM41 19.25V13.25H42.5V19.25H41Z" fill="#0AC38B"/>
<path d="M45.5 23.75V22.25H51.5V23.75H45.5ZM44 22.25V17.75H45.5V19.25H50V17.75H51.5V20.75H45.5V22.25H44ZM45.5 17.75V16.25H50V17.75H45.5Z" fill="#0AC38B"/>
<path d="M59 19.25V17.75H60.5V19.25H59ZM53 23.75V16.25H54.5V17.75H56V19.25H54.5V23.75H53ZM56 17.75V16.25H59V17.75H56Z" fill="#0AC38B"/>
<path d="M62 23.75V20.75H63.5V23.75H62Z" fill="#0AC38B"/>
<path d="M65 23.75V20.75H66.5V22.25H71V20.75H72.5V23.75H65ZM66.5 20.75V19.25H68V20.75H66.5ZM68 19.25V17.75H71V19.25H68ZM65 16.25V14.75H66.5V16.25H65ZM71 17.75V14.75H72.5V17.75H71ZM66.5 14.75V13.25H71V14.75H66.5Z" fill="#0AC38B"/>
<path d="M74 23.75V20.75H75.5V23.75H74Z" fill="#0AC38B"/>
<path d="M78.5 23.75V22.25H83V23.75H78.5ZM80 19.25V17.75H81.5V19.25H80ZM77 22.25V14.75H78.5V19.25H80V20.75H78.5V22.25H77ZM83 22.25V17.75H81.5V16.25H83V14.75H84.5V22.25H83ZM78.5 14.75V13.25H83V14.75H78.5Z" fill="#0AC38B"/>
<path d="M101.8 24.414C99.028 24.022 96.48 23.504 94.17 22.846C92.938 23.714 91.244 24.274 89.2 24.47V22.65C90.166 22.566 91.048 22.384 91.804 22.09C91.286 21.908 90.796 21.712 90.32 21.516V19.934H89.886V14.236H94.604V13.648H89.2V11.94H101.8V13.648H96.396V14.236H101.114V19.934H96.256C96.116 20.494 95.878 21.012 95.556 21.474C97.544 21.978 99.63 22.398 101.8 22.706V24.414ZM90.586 19.934C91.566 20.298 92.588 20.634 93.624 20.942C93.932 20.648 94.17 20.312 94.338 19.934H90.586ZM91.678 18.506H94.604V17.736H91.678V18.506ZM91.678 16.434H94.604V15.664H91.678V16.434ZM96.396 18.506H99.322V17.736H96.396V18.506ZM96.396 16.434H99.322V15.664H96.396V16.434ZM109.36 24.4C109.444 24.176 109.528 23.966 109.598 23.756H108.24C108.212 22.566 107.988 21.432 107.582 20.298H109.094C109.444 21.348 109.598 22.398 109.668 23.532C110.13 22.076 110.27 20.704 110.27 18.968V12.08C112.076 12.08 113.896 11.968 115.674 11.716V13.508C114.47 13.69 113.266 13.788 112.034 13.844V15.51H115.94V17.302H114.96V24.4H113.196V17.302H112.034V18.968C112.034 20.928 111.81 22.636 111.278 24.4H109.36ZM102.934 24.232C103.396 22.944 103.648 21.656 103.69 20.298H105.16C105.104 21.684 104.936 22.958 104.502 24.232H102.934ZM103.116 17.316V15.748H104.334L104.04 14.068H103.368V12.5H105.496V11.8H107.288V12.5H109.556V14.068H108.898L108.604 15.748H109.808V17.316H107.358V18.268H109.64V19.836H107.316V24.4H105.608V19.836H103.284V18.268H105.566V17.316H103.116ZM105.636 14.068L105.93 15.748H107.008L107.302 14.068H105.636ZM117.62 24.4V13.424H122.59L122.576 11.534H124.424V13.424H129.38V24.4H125.992V22.552H127.56V15.244H124.466C124.704 17.428 125.782 18.926 127.28 19.71V21.838C125.488 21.11 124.228 19.794 123.5 18.1C122.772 19.794 121.512 21.11 119.72 21.838V19.71C121.218 18.926 122.296 17.428 122.534 15.244H119.44V24.4H117.62ZM139.404 16.252C140.566 17.652 141.952 18.688 143.94 19.346V21.194C143.45 21.068 142.974 20.914 142.526 20.732V24.344H132.474V20.732C132.026 20.914 131.55 21.068 131.06 21.194V19.346C133.048 18.688 134.434 17.652 135.596 16.252H139.404ZM131.2 17.806V15.986C132.95 15.566 134.658 14.894 136.352 13.97V15.818C134.812 16.714 133.09 17.316 131.2 17.806ZM131.494 15.02V12.248H136.576V11.52H138.424V12.248H143.506V15.02H141.686V13.928H133.314V15.02H131.494ZM134.294 22.72H140.706V21.152H134.294V22.72ZM134.672 19.514H140.328C139.684 19.052 139.124 18.52 138.676 17.932H136.324C135.862 18.52 135.316 19.052 134.672 19.514ZM138.648 15.818V13.97C140.342 14.894 142.05 15.566 143.8 15.986V17.806C141.91 17.316 140.188 16.714 138.648 15.818Z" fill="#0AC38B"/>
</svg>
