<svg width="193" height="45" viewBox="0 0 193 45" fill="none" xmlns="http://www.w3.org/2000/svg">
<rect x="1.5" y="1.5" width="189.6" height="42" rx="7.5" fill="#E7FFF8"/>
<rect x="1.5" y="1.5" width="189.6" height="42" rx="7.5" stroke="#01C389" stroke-width="3"/>
<path d="M22.8 17.7H25.2V20.1H22.8V17.7Z" fill="#01C389"/>
<path d="M21.6 18.9H24V21.3H21.6V18.9Z" fill="#01C389"/>
<path d="M20.4 20.1H22.8V22.5H20.4V20.1Z" fill="#01C389"/>
<path d="M20.4 22.5H22.8V24.9H20.4V22.5Z" fill="#01C389"/>
<path d="M21.6 23.7H24V26.1H21.6V23.7Z" fill="#01C389"/>
<path d="M22.8 24.9H25.2V27.3H22.8V24.9Z" fill="#01C389"/>
<path d="M30 17.7H32.4V20.1H30V17.7Z" fill="#01C389"/>
<path d="M31.2 18.9H33.6V21.3H31.2V18.9Z" fill="#01C389"/>
<path d="M32.4 20.1H34.8V22.5H32.4V20.1Z" fill="#01C389"/>
<path d="M30 24.9H32.4V27.3H30V24.9Z" fill="#01C389"/>
<path d="M31.2 23.7H33.6V26.1H31.2V23.7Z" fill="#01C389"/>
<path d="M32.4 22.5H34.8V24.9H32.4V22.5Z" fill="#01C389"/>
<path d="M33.6 21.3H36V23.7H33.6V21.3Z" fill="#01C389"/>
<path d="M19.2 21.3H21.6V23.7H19.2V21.3Z" fill="#01C389"/>
<path d="M45.8 28.8V27H47.6V28.8H45.8ZM44 27V23.4H45.8V27H44ZM47.6 27V23.4H49.4V27H47.6ZM42.2 23.4V16.2H44V23.4H42.2ZM49.4 23.4V16.2H51.2V23.4H49.4Z" fill="#01C389"/>
<path d="M54.8 28.8V27H62V28.8H54.8ZM53 27V21.6H54.8V23.4H60.2V21.6H62V25.2H54.8V27H53ZM54.8 21.6V19.8H60.2V21.6H54.8Z" fill="#01C389"/>
<path d="M71 23.4V21.6H72.8V23.4H71ZM63.8 28.8V19.8H65.6V21.6H67.4V23.4H65.6V28.8H63.8ZM67.4 21.6V19.8H71V21.6H67.4Z" fill="#01C389"/>
<path d="M74.6 28.8V25.2H76.4V28.8H74.6Z" fill="#01C389"/>
<path d="M78.2 28.8V25.2H80V27H85.4V25.2H87.2V28.8H78.2ZM80 25.2V23.4H81.8V25.2H80ZM81.8 23.4V21.6H85.4V23.4H81.8ZM78.2 19.8V18H80V19.8H78.2ZM85.4 21.6V18H87.2V21.6H85.4ZM80 18V16.2H85.4V18H80Z" fill="#01C389"/>
<path d="M89 28.8V25.2H90.8V28.8H89Z" fill="#01C389"/>
<path d="M94.4 28.8V27H99.8V28.8H94.4ZM96.2 23.4V21.6H98V23.4H96.2ZM92.6 27V18H94.4V23.4H96.2V25.2H94.4V27H92.6ZM99.8 27V21.6H98V19.8H99.8V18H101.6V27H99.8ZM94.4 18V16.2H99.8V18H94.4Z" fill="#01C389"/>
<path d="M122.56 29.6968C119.234 29.2264 116.176 28.6048 113.404 27.8152C111.926 28.8568 109.893 29.5288 107.44 29.764V27.58C108.599 27.4792 109.658 27.2608 110.565 26.908C109.943 26.6896 109.355 26.4544 108.784 26.2192V24.3208H108.263V17.4832H113.925V16.7776H107.44V14.728H122.56V16.7776H116.075V17.4832H121.737V24.3208H115.907C115.739 24.9928 115.454 25.6144 115.067 26.1688C117.453 26.7736 119.956 27.2776 122.56 27.6472V29.6968ZM109.103 24.3208C110.279 24.7576 111.506 25.1608 112.749 25.5304C113.118 25.1776 113.404 24.7744 113.606 24.3208H109.103ZM110.414 22.6072H113.925V21.6832H110.414V22.6072ZM110.414 20.1208H113.925V19.1968H110.414V20.1208ZM116.075 22.6072H119.586V21.6832H116.075V22.6072ZM116.075 20.1208H119.586V19.1968H116.075V20.1208ZM131.632 29.68C131.733 29.4112 131.834 29.1592 131.918 28.9072H130.288C130.254 27.4792 129.986 26.1184 129.498 24.7576H131.313C131.733 26.0176 131.918 27.2776 132.002 28.6384C132.556 26.8912 132.724 25.2448 132.724 23.1616V14.896C134.891 14.896 137.075 14.7616 139.209 14.4592V16.6096C137.764 16.828 136.319 16.9456 134.841 17.0128V19.012H139.528V21.1624H138.352V29.68H136.235V21.1624H134.841V23.1616C134.841 25.5136 134.572 27.5632 133.934 29.68H131.632ZM123.921 29.4784C124.475 27.9328 124.778 26.3872 124.828 24.7576H126.592C126.525 26.4208 126.323 27.9496 125.802 29.4784H123.921ZM124.139 21.1792V19.2976H125.601L125.248 17.2816H124.442V15.4H126.995V14.56H129.146V15.4H131.867V17.2816H131.078L130.725 19.2976H132.17V21.1792H129.23V22.3216H131.968V24.2032H129.179V29.68H127.13V24.2032H124.341V22.3216H127.079V21.1792H124.139ZM127.163 17.2816L127.516 19.2976H128.81L129.162 17.2816H127.163ZM141.544 29.68V16.5088H147.508L147.491 14.2408H149.709V16.5088H155.656V29.68H151.59V27.4624H153.472V18.6928H149.759C150.045 21.3136 151.338 23.1112 153.136 24.052V26.6056C150.986 25.732 149.474 24.1528 148.6 22.12C147.726 24.1528 146.214 25.732 144.064 26.6056V24.052C145.862 23.1112 147.155 21.3136 147.441 18.6928H143.728V29.68H141.544ZM167.685 19.9024C169.079 21.5824 170.742 22.8256 173.128 23.6152V25.8328C172.54 25.6816 171.969 25.4968 171.431 25.2784V29.6128H159.369V25.2784C158.831 25.4968 158.26 25.6816 157.672 25.8328V23.6152C160.058 22.8256 161.721 21.5824 163.115 19.9024H167.685ZM157.84 21.7672V19.5832C159.94 19.0792 161.99 18.2728 164.022 17.164V19.3816C162.174 20.4568 160.108 21.1792 157.84 21.7672ZM158.193 18.424V15.0976H164.291V14.224H166.509V15.0976H172.607V18.424H170.423V17.1136H160.377V18.424H158.193ZM161.553 27.664H169.247V25.7824H161.553V27.664ZM162.006 23.8168H168.794C168.021 23.2624 167.349 22.624 166.811 21.9184H163.989C163.434 22.624 162.779 23.2624 162.006 23.8168ZM166.778 19.3816V17.164C168.81 18.2728 170.86 19.0792 172.96 19.5832V21.7672C170.692 21.1792 168.626 20.4568 166.778 19.3816Z" fill="#01C389"/>
</svg>
