<svg width="194" height="46" viewBox="0 0 194 46" fill="none" xmlns="http://www.w3.org/2000/svg">
<rect x="2.25" y="1.8" width="189.6" height="42" rx="7.5" fill="#E7FFF8"/>
<rect x="2.25" y="1.8" width="189.6" height="42" rx="7.5" stroke="#0AC38B" stroke-width="3"/>
<path d="M23.55 18H25.95V20.4H23.55V18Z" fill="#0AC38B"/>
<path d="M22.35 19.2H24.75V21.6H22.35V19.2Z" fill="#0AC38B"/>
<path d="M21.15 20.4H23.55V22.8H21.15V20.4Z" fill="#0AC38B"/>
<path d="M21.15 22.8H23.55V25.2H21.15V22.8Z" fill="#0AC38B"/>
<path d="M22.35 24H24.75V26.4H22.35V24Z" fill="#0AC38B"/>
<path d="M23.55 25.2H25.95V27.6H23.55V25.2Z" fill="#0AC38B"/>
<path d="M30.75 18H33.15V20.4H30.75V18Z" fill="#0AC38B"/>
<path d="M31.95 19.2H34.35V21.6H31.95V19.2Z" fill="#0AC38B"/>
<path d="M33.15 20.4H35.55V22.8H33.15V20.4Z" fill="#0AC38B"/>
<path d="M30.75 25.2H33.15V27.6H30.75V25.2Z" fill="#0AC38B"/>
<path d="M31.95 24H34.35V26.4H31.95V24Z" fill="#0AC38B"/>
<path d="M33.15 22.8H35.55V25.2H33.15V22.8Z" fill="#0AC38B"/>
<path d="M34.35 21.6H36.75V24H34.35V21.6Z" fill="#0AC38B"/>
<path d="M19.95 21.6H22.35V24H19.95V21.6Z" fill="#0AC38B"/>
<path d="M46.55 29.1V27.3H48.35V29.1H46.55ZM44.75 27.3V23.7H46.55V27.3H44.75ZM48.35 27.3V23.7H50.15V27.3H48.35ZM42.95 23.7V16.5H44.75V23.7H42.95ZM50.15 23.7V16.5H51.95V23.7H50.15Z" fill="#0AC38B"/>
<path d="M55.55 29.1V27.3H62.75V29.1H55.55ZM53.75 27.3V21.9H55.55V23.7H60.95V21.9H62.75V25.5H55.55V27.3H53.75ZM55.55 21.9V20.1H60.95V21.9H55.55Z" fill="#0AC38B"/>
<path d="M71.75 23.7V21.9H73.55V23.7H71.75ZM64.55 29.1V20.1H66.35V21.9H68.15V23.7H66.35V29.1H64.55ZM68.15 21.9V20.1H71.75V21.9H68.15Z" fill="#0AC38B"/>
<path d="M75.35 29.1V25.5H77.15V29.1H75.35Z" fill="#0AC38B"/>
<path d="M78.95 29.1V25.5H80.75V27.3H86.15V25.5H87.95V29.1H78.95ZM80.75 25.5V23.7H82.55V25.5H80.75ZM82.55 23.7V21.9H86.15V23.7H82.55ZM78.95 20.1V18.3H80.75V20.1H78.95ZM86.15 21.9V18.3H87.95V21.9H86.15ZM80.75 18.3V16.5H86.15V18.3H80.75Z" fill="#0AC38B"/>
<path d="M89.75 29.1V25.5H91.55V29.1H89.75Z" fill="#0AC38B"/>
<path d="M95.15 29.1V27.3H100.55V29.1H95.15ZM96.95 23.7V21.9H98.75V23.7H96.95ZM93.35 27.3V18.3H95.15V23.7H96.95V25.5H95.15V27.3H93.35ZM100.55 27.3V21.9H98.75V20.1H100.55V18.3H102.35V27.3H100.55ZM95.15 18.3V16.5H100.55V18.3H95.15Z" fill="#0AC38B"/>
<path d="M123.31 29.9968C119.984 29.5264 116.926 28.9048 114.154 28.1152C112.676 29.1568 110.643 29.8288 108.19 30.064V27.88C109.349 27.7792 110.408 27.5608 111.315 27.208C110.693 26.9896 110.105 26.7544 109.534 26.5192V24.6208H109.013V17.7832H114.675V17.0776H108.19V15.028H123.31V17.0776H116.825V17.7832H122.487V24.6208H116.657C116.489 25.2928 116.204 25.9144 115.817 26.4688C118.203 27.0736 120.706 27.5776 123.31 27.9472V29.9968ZM109.853 24.6208C111.029 25.0576 112.256 25.4608 113.499 25.8304C113.868 25.4776 114.154 25.0744 114.356 24.6208H109.853ZM111.164 22.9072H114.675V21.9832H111.164V22.9072ZM111.164 20.4208H114.675V19.4968H111.164V20.4208ZM116.825 22.9072H120.336V21.9832H116.825V22.9072ZM116.825 20.4208H120.336V19.4968H116.825V20.4208ZM132.382 29.98C132.483 29.7112 132.584 29.4592 132.668 29.2072H131.038C131.004 27.7792 130.736 26.4184 130.248 25.0576H132.063C132.483 26.3176 132.668 27.5776 132.752 28.9384C133.306 27.1912 133.474 25.5448 133.474 23.4616V15.196C135.641 15.196 137.825 15.0616 139.959 14.7592V16.9096C138.514 17.128 137.069 17.2456 135.591 17.3128V19.312H140.278V21.4624H139.102V29.98H136.985V21.4624H135.591V23.4616C135.591 25.8136 135.322 27.8632 134.684 29.98H132.382ZM124.671 29.7784C125.225 28.2328 125.528 26.6872 125.578 25.0576H127.342C127.275 26.7208 127.073 28.2496 126.552 29.7784H124.671ZM124.889 21.4792V19.5976H126.351L125.998 17.5816H125.192V15.7H127.745V14.86H129.896V15.7H132.617V17.5816H131.828L131.475 19.5976H132.92V21.4792H129.98V22.6216H132.718V24.5032H129.929V29.98H127.88V24.5032H125.091V22.6216H127.829V21.4792H124.889ZM127.913 17.5816L128.266 19.5976H129.56L129.912 17.5816H127.913ZM142.294 29.98V16.8088H148.258L148.241 14.5408H150.459V16.8088H156.406V29.98H152.34V27.7624H154.222V18.9928H150.509C150.795 21.6136 152.088 23.4112 153.886 24.352V26.9056C151.736 26.032 150.224 24.4528 149.35 22.42C148.476 24.4528 146.964 26.032 144.814 26.9056V24.352C146.612 23.4112 147.905 21.6136 148.191 18.9928H144.478V29.98H142.294ZM168.435 20.2024C169.829 21.8824 171.492 23.1256 173.878 23.9152V26.1328C173.29 25.9816 172.719 25.7968 172.181 25.5784V29.9128H160.119V25.5784C159.581 25.7968 159.01 25.9816 158.422 26.1328V23.9152C160.808 23.1256 162.471 21.8824 163.865 20.2024H168.435ZM158.59 22.0672V19.8832C160.69 19.3792 162.74 18.5728 164.772 17.464V19.6816C162.924 20.7568 160.858 21.4792 158.59 22.0672ZM158.943 18.724V15.3976H165.041V14.524H167.259V15.3976H173.357V18.724H171.173V17.4136H161.127V18.724H158.943ZM162.303 27.964H169.997V26.0824H162.303V27.964ZM162.756 24.1168H169.544C168.771 23.5624 168.099 22.924 167.561 22.2184H164.739C164.184 22.924 163.529 23.5624 162.756 24.1168ZM167.528 19.6816V17.464C169.56 18.5728 171.61 19.3792 173.71 19.8832V22.0672C171.442 21.4792 169.376 20.7568 167.528 19.6816Z" fill="#0AC38B"/>
</svg>
